<svg width="149" height="149" viewBox="0 0 149 149" fill="none" xmlns="http://www.w3.org/2000/svg">
<path fill-rule="evenodd" clip-rule="evenodd" d="M17.8219 73.323C18.4804 72.8204 19.3565 72.7056 20.1223 73.0216L80.6197 97.9868C81.7459 98.4516 82.3234 99.7061 81.9439 100.864C80.5388 105.151 80.4339 109.194 81.0036 112.389C81.5958 115.709 82.8344 117.727 83.6956 118.396C84.63 119.12 84.8734 120.428 84.2617 121.44C83.65 122.451 82.3773 122.845 81.3021 122.353L19.5107 94.1247C19.3443 94.0487 19.1875 93.9532 19.0434 93.8404C16.799 92.0841 13.9029 88.0447 13.9029 82.4251C13.9029 80.3345 14.187 78.5516 14.862 77.0107C15.5525 75.4345 16.5825 74.2688 17.8219 73.323ZM20.4782 92.007C18.7257 90.6355 16.231 87.2419 16.231 82.4251C16.231 78.6439 17.2661 76.6757 19.2343 75.1738L79.7315 100.139C77.6077 106.619 78.1898 112.658 79.7656 116.532C80.4571 118.232 81.34 119.515 82.2695 120.235L20.4782 92.007Z" fill="url(#paint0_linear_2_76)"/>
<path d="M132.769 51.395L74.251 28.7649L18.9332 75.3964L82.4801 102.141L132.769 51.395Z" fill="url(#paint1_linear_2_76)"/>
<path fill-rule="evenodd" clip-rule="evenodd" d="M72.7504 26.9849C73.4005 26.4369 74.2977 26.2868 75.0908 26.5935L133.609 49.2235C134.341 49.5068 134.881 50.1404 135.045 50.9086C135.209 51.6766 134.975 52.4758 134.422 53.0337L84.1338 103.78C83.4648 104.455 82.4529 104.655 81.5769 104.287L18.03 77.5422C17.2832 77.2279 16.7534 76.5479 16.6315 75.7467C16.5097 74.9456 16.813 74.1387 17.4327 73.6164L72.7504 26.9849ZM74.251 28.7649L132.769 51.3949L82.4801 102.141L18.9331 75.3964L74.251 28.7649Z" fill="url(#paint2_linear_2_76)"/>
<path fill-rule="evenodd" clip-rule="evenodd" d="M134.035 49.7896C134.935 50.6172 135.041 51.9997 134.278 52.9551C132.371 55.3441 131.283 58.047 131.205 60.5112C131.13 62.8967 131.986 65.1513 134.188 66.9458C134.696 67.3591 135.006 67.9669 135.042 68.6202C135.079 69.2735 134.839 69.9121 134.381 70.3796L83.9847 121.838C83.4954 122.337 82.8077 122.591 82.1113 122.528C81.4151 122.464 80.784 122.091 80.3925 121.513C77.3351 116.989 74.3874 108.693 77.996 100.021C78.1215 99.7191 78.3093 99.4472 78.5469 99.2228L130.86 49.8104C131.749 48.971 133.135 48.9619 134.035 49.7896ZM132.459 51.5028L80.1455 100.915C77.418 107.471 78.8872 113.841 81.0959 118.133C81.4876 118.894 81.9025 119.589 82.3213 120.209L132.718 68.7506C132.143 68.2827 131.639 67.7858 131.2 67.2651C128.876 64.5019 128.416 61.0664 129.276 57.7118C129.833 55.5402 130.943 53.4024 132.459 51.5028Z" fill="url(#paint3_linear_2_76)"/>
<path fill-rule="evenodd" clip-rule="evenodd" d="M129.462 68.1488C129.909 68.6107 129.898 69.3476 129.436 69.7948L93.8007 104.29C93.3388 104.737 92.6019 104.725 92.1547 104.263C91.7076 103.801 91.7195 103.065 92.1815 102.617L127.816 68.122C128.279 67.6749 129.015 67.6868 129.462 68.1488ZM127.408 65.2661C127.844 65.7373 127.818 66.4739 127.346 66.9111L104.349 88.2506C103.878 88.688 103.141 88.6605 102.704 88.1892C102.267 87.718 102.294 86.9815 102.765 86.5441L125.762 65.2046C126.233 64.7673 126.97 64.7948 127.408 65.2661ZM28.8246 88.8971C29.0764 88.3056 29.7601 88.0302 30.3515 88.2819L52.529 97.7212C53.1205 97.973 53.396 98.6566 53.1442 99.2482C52.8924 99.8398 52.2088 100.115 51.6172 99.8634L29.4398 90.424C28.8483 90.1724 28.5728 89.4887 28.8246 88.8971Z" fill="url(#paint4_linear_2_76)"/>
<defs>
<linearGradient id="paint0_linear_2_76" x1="49.2503" y1="72.8456" x2="49.2503" y2="122.564" gradientUnits="userSpaceOnUse">
<stop stop-color="#319DCC"/>
<stop offset="1" stop-color="#20334B"/>
</linearGradient>
<linearGradient id="paint1_linear_2_76" x1="75.8514" y1="28.7649" x2="75.8514" y2="102.141" gradientUnits="userSpaceOnUse">
<stop stop-color="#319DCC"/>
<stop offset="1" stop-color="#20334B"/>
</linearGradient>
<linearGradient id="paint2_linear_2_76" x1="75.8508" y1="26.4368" x2="75.8508" y2="104.469" gradientUnits="userSpaceOnUse">
<stop stop-color="#319DCC"/>
<stop offset="1" stop-color="#20334B"/>
</linearGradient>
<linearGradient id="paint3_linear_2_76" x1="105.69" y1="49.1748" x2="105.69" y2="122.537" gradientUnits="userSpaceOnUse">
<stop stop-color="#319DCC"/>
<stop offset="1" stop-color="#20334B"/>
</linearGradient>
<linearGradient id="paint4_linear_2_76" x1="79.2607" y1="64.8938" x2="79.2607" y2="104.618" gradientUnits="userSpaceOnUse">
<stop stop-color="#319DCC"/>
<stop offset="1" stop-color="#20334B"/>
</linearGradient>
</defs>
</svg>
