<svg width="123" height="123" viewBox="0 0 123 123" fill="none" xmlns="http://www.w3.org/2000/svg">
<g clip-path="url(#clip0_2_85)">
<mask id="mask0_2_85" style="mask-type:alpha" maskUnits="userSpaceOnUse" x="0" y="0" width="123" height="123">
<path d="M25.966 122.42L0.106705 25.9116L96.5848 0.0603435L122.444 96.5686L25.966 122.42Z" fill="white"/>
</mask>
<g mask="url(#mask0_2_85)">
<path fill-rule="evenodd" clip-rule="evenodd" d="M96.0837 56.705L95.9015 57.0207L82.5103 71.2081C81.9418 71.8106 81.1571 72.1625 80.3291 72.1865C79.501 72.2105 78.6973 71.9046 78.0948 71.336C77.4923 70.7674 77.1404 69.9828 77.1164 69.1547C77.0924 68.3267 77.3984 67.523 77.9669 66.9205L90.7181 53.4108C90.7181 53.3504 90.7022 53.2911 90.672 53.2388L72.8743 47.9146C72.4736 47.8037 72.099 47.614 71.7726 47.3566C71.4461 47.0991 71.1743 46.7791 70.9731 46.4152C70.7719 46.0513 70.6454 45.651 70.6009 45.2376C70.5565 44.8242 70.595 44.4061 70.7142 44.0078C70.8333 43.6095 71.0308 43.239 71.2951 42.9179C71.5593 42.5969 71.8849 42.3319 72.2529 42.1383C72.6209 41.9448 73.0238 41.8267 73.438 41.7908C73.8523 41.755 74.2695 41.8022 74.6652 41.9297L93.356 47.5208L93.6717 47.703C95.1832 48.5788 96.2859 50.0181 96.7381 51.7055C97.1902 53.393 96.9549 55.1908 96.0837 56.705ZM61.3947 89.8232C61.3578 90.2355 61.2393 90.6363 61.0461 91.0024C60.8529 91.3685 60.5889 91.6926 60.2694 91.9558C59.9499 92.219 59.5813 92.4161 59.185 92.5356C58.7887 92.6551 58.3726 92.6947 57.9608 92.652C57.5491 92.6093 57.1499 92.4853 56.7865 92.287C56.4232 92.0887 56.1028 91.8202 55.8441 91.4971C55.5854 91.1739 55.3935 90.8026 55.2795 90.4046C55.1655 90.0067 55.1318 89.5901 55.1802 89.1789L61.0493 32.6209C61.0863 32.2086 61.2048 31.8078 61.3979 31.4417C61.5911 31.0756 61.8551 30.7515 62.1746 30.4883C62.4941 30.2251 62.8627 30.028 63.2591 29.9085C63.6554 29.789 64.0715 29.7494 64.4832 29.7921C64.895 29.8347 65.2941 29.9588 65.6575 30.1571C66.0209 30.3554 66.3412 30.6239 66.6 30.947C66.8587 31.2702 67.0506 31.6415 67.1646 32.0394C67.2785 32.4374 67.3123 32.854 67.2639 33.2651L61.3947 89.8232ZM49.4806 80.5403C48.9405 80.6851 48.3539 80.687 47.7788 80.5144L29.0881 74.9233L28.7724 74.7411C27.2608 73.8653 26.1581 72.426 25.706 70.7385C25.2538 69.0511 25.4891 67.2533 26.3603 65.7391L26.5426 65.4234L39.9337 51.236C40.5023 50.6335 41.2869 50.2815 42.115 50.2576C42.9431 50.2336 43.7467 50.5395 44.3492 51.1081C44.9517 51.6767 45.3037 52.4613 45.3277 53.2894C45.3516 54.1174 45.0457 54.9211 44.4771 55.5236L31.726 69.0333C31.7259 69.0937 31.7418 69.153 31.772 69.2053L49.5697 74.5295C50.2211 74.7247 50.7911 75.127 51.193 75.6755C51.595 76.224 51.807 76.8887 51.7969 77.5686C51.7868 78.2485 51.5552 78.9066 51.1372 79.4429C50.7191 79.9792 50.1375 80.3645 49.4806 80.5403ZM48.2843 12.9378C21.6178 20.083 5.79247 47.4933 12.9377 74.1598C20.083 100.826 47.4933 116.652 74.1598 109.506C100.826 102.361 116.652 74.9508 109.506 48.2843C102.361 21.6178 74.9508 5.79248 48.2843 12.9378Z" fill="url(#paint0_linear_2_85)"/>
</g>
</g>
<defs>
<linearGradient id="paint0_linear_2_85" x1="48.2843" y1="12.9378" x2="74.1598" y2="109.506" gradientUnits="userSpaceOnUse">
<stop stop-color="#4973E2"/>
<stop offset="1" stop-color="#203056"/>
</linearGradient>
<clipPath id="clip0_2_85">
<rect width="99.9752" height="99.9752" fill="white" transform="translate(0 25.8755) rotate(-15)"/>
</clipPath>
</defs>
</svg>
