<svg width="135" height="135" viewBox="0 0 135 135" fill="none" xmlns="http://www.w3.org/2000/svg">
<g clip-path="url(#clip0_2_142)">
<path d="M98.5132 114.427L13.8804 87.3413C9.21293 85.8475 6.63193 80.8369 8.1257 76.1694L28.4398 12.6949C29.9335 8.02741 34.9441 5.44641 39.6116 6.94017L124.244 34.0256C128.912 35.5194 131.493 40.5299 129.999 45.1974L109.685 108.672C108.191 113.339 103.181 115.92 98.5132 114.427ZM38.2573 11.1718C35.9236 10.4249 33.4183 11.7154 32.6714 14.0492L12.3573 77.5237C11.6105 79.8575 12.9009 82.3627 15.2347 83.1096L99.8674 110.195C102.201 110.942 104.706 109.651 105.453 107.318L125.767 43.8432C126.514 41.5094 125.224 39.0041 122.89 38.2572L38.2573 11.1718ZM81.7554 123.059L22.5125 104.099C21.9514 103.919 21.4845 103.524 21.2147 103C20.9449 102.477 20.8942 101.867 21.0738 101.306C21.2534 100.745 21.6486 100.278 22.1724 100.008C22.6961 99.7384 23.3056 99.6878 23.8668 99.8673L83.1097 118.827C83.6708 119.007 84.1377 119.402 84.4075 119.926C84.6773 120.449 84.728 121.059 84.5484 121.62C84.3688 122.181 83.9736 122.648 83.4499 122.918C82.9261 123.188 82.3166 123.238 81.7554 123.059Z" fill="url(#paint0_linear_2_142)"/>
<path d="M66.987 118.332L37.3233 108.839C36.9883 108.731 36.6838 108.545 36.4346 108.297C36.1854 108.048 35.9987 107.744 35.8897 107.409C35.7808 107.075 35.7528 106.719 35.808 106.371C35.8631 106.024 36 105.694 36.2072 105.41L44.5016 94.0692C44.7771 93.6931 45.1639 93.4133 45.6073 93.2692C46.0507 93.1252 46.5281 93.1243 46.972 93.2667L68.1302 100.038C68.5745 100.18 68.9628 100.458 69.24 100.833C69.5173 101.209 69.6694 101.661 69.6749 102.128L69.838 115.758C69.9184 116.138 69.8974 116.533 69.7773 116.903C69.6571 117.273 69.442 117.605 69.1534 117.865C68.8647 118.126 68.5128 118.306 68.1326 118.388C67.7524 118.47 67.3574 118.451 66.987 118.332ZM41.6122 105.546L65.3644 113.148L65.2525 103.782L47.1432 97.9865L41.6122 105.546ZM103.93 97.5001L19.2975 70.4147L36.9031 15.4034L121.536 42.4889L103.93 97.5001ZM24.8835 67.5373L101.053 91.9142L115.95 45.3662L39.7804 20.9894L24.8835 67.5373Z" fill="url(#paint1_linear_2_142)"/>
<path d="M58.2282 94.5365C60.5652 95.2845 63.0661 93.9962 63.8141 91.6592C64.562 89.3221 63.2738 86.8212 60.9367 86.0733C58.5996 85.3253 56.0988 86.6136 55.3508 88.9506C54.6029 91.2877 55.8911 93.7886 58.2282 94.5365Z" fill="url(#paint2_linear_2_142)"/>
</g>
<defs>
<linearGradient id="paint0_linear_2_142" x1="81.928" y1="20.4829" x2="52.134" y2="113.579" gradientUnits="userSpaceOnUse">
<stop stop-color="#2F74D9"/>
<stop offset="1" stop-color="#0F365E"/>
</linearGradient>
<linearGradient id="paint1_linear_2_142" x1="79.2194" y1="28.9462" x2="52.134" y2="113.579" gradientUnits="userSpaceOnUse">
<stop stop-color="#2F74D9"/>
<stop offset="1" stop-color="#0F365E"/>
</linearGradient>
<linearGradient id="paint2_linear_2_142" x1="60.9367" y1="86.0733" x2="58.2282" y2="94.5365" gradientUnits="userSpaceOnUse">
<stop stop-color="#2F74D9"/>
<stop offset="1" stop-color="#0F365E"/>
</linearGradient>
<clipPath id="clip0_2_142">
<rect width="106.633" height="106.633" fill="white" transform="translate(32.5026) rotate(17.7465)"/>
</clipPath>
</defs>
</svg>
