<svg width="192" height="104" viewBox="0 0 192 104" fill="none" xmlns="http://www.w3.org/2000/svg">
<g clip-path="url(#clip0_2_92)">
<path d="M9.99706 18.4987L3.86509 47.9276L36.0616 54.6363L38.4562 43.1441L19.3975 39.1729L20.7405 32.7274L39.7992 36.6985L42.1936 25.2073L9.99706 18.4987ZM11.4351 11.5969L43.6317 18.3056L46.0264 6.8124L13.8299 0.10376L11.4351 11.5969Z" fill="url(#paint0_linear_2_92)"/>
<path d="M78.8025 13.6418L59.1761 28.7837L56.7801 40.2827L69.0305 61.5058L85.2482 64.885L69.9829 36.6689L95.1729 17.0528L78.8025 13.6418Z" fill="url(#paint1_linear_2_92)"/>
<path d="M150.791 28.6418L166.592 31.9341C173.365 33.3453 178.478 36.1782 181.932 40.4329C184.592 43.6821 186.365 47.5656 187.077 51.7044C187.632 54.8669 187.578 58.1063 186.917 61.2484C185.776 67.0927 182.474 72.2919 177.668 75.808C174.584 78.2196 170.918 79.7755 167.041 80.319C163.371 80.698 159.664 80.4692 156.069 79.6417L140.827 76.4657L144.544 58.6238L160.122 49.6499L156.308 67.9567C158.293 68.3686 160.321 68.5332 162.347 68.4468C163.905 68.3096 165.419 67.8535 166.794 67.1067C168.45 66.2333 169.881 64.9854 170.971 63.4622C172.119 61.9209 172.919 60.1481 173.314 58.2669C173.703 56.3802 173.666 54.4305 173.206 52.5599C172.783 50.703 171.937 48.969 170.733 47.493C169.756 46.3131 168.544 45.3506 167.173 44.6673C165.365 43.8291 163.459 43.2232 161.499 42.8641L148.397 40.134L150.791 28.6418Z" fill="url(#paint2_linear_2_92)"/>
<path d="M109.261 69.8956C104.521 68.9079 100.18 66.5367 96.7871 63.0818C93.3944 59.627 91.1024 55.2437 90.2009 50.4862C89.2995 45.7287 89.829 40.8108 91.7226 36.3543C93.6162 31.8977 96.7888 28.1028 100.839 25.4494C104.89 22.796 109.636 21.4033 114.478 21.4474C119.32 21.4915 124.04 22.9703 128.041 25.697C132.043 28.4237 135.146 32.2758 136.958 36.766C138.77 41.2562 139.21 46.183 138.222 50.9233C136.89 57.2758 133.094 62.8409 127.664 66.3976C122.235 69.9543 115.617 71.2123 109.261 69.8956ZM116.465 35.3202C114.367 34.883 112.187 35.0778 110.199 35.88C108.212 36.6821 106.507 38.0556 105.3 39.8267C104.093 41.5978 103.439 43.6869 103.419 45.83C103.4 47.9731 104.016 50.0738 105.191 51.8665C106.365 53.6592 108.045 55.0634 110.017 55.9015C111.99 56.7396 114.167 56.9739 116.272 56.5749C118.378 56.1759 120.318 55.1614 121.847 53.6598C123.376 52.1582 124.426 50.2368 124.863 48.1387C125.446 45.3256 124.889 42.3962 123.315 39.9932C121.74 37.5901 119.277 35.9096 116.465 35.3202Z" fill="url(#paint3_linear_2_92)"/>
<path d="M62.8434 10.3154L53.3102 8.32904L50.9158 19.8202L60.4491 21.8066L62.8434 10.3154Z" fill="url(#paint4_linear_2_92)"/>
<path d="M45.7062 44.6558L55.3061 46.656L52.9117 58.1472L43.3119 56.147L45.7062 44.6558Z" fill="url(#paint5_linear_2_92)"/>
<path d="M0.184695 66.3849L1.70213 59.1024L3.1843 59.4112L1.92531 65.4534L5.60919 66.221L5.35074 67.4614L0.184695 66.3849Z" fill="url(#paint6_linear_2_92)"/>
<path d="M7.91818 60.3557L9.32496 60.6488L9.11527 61.6552C9.05744 61.9817 8.95429 62.2985 8.80882 62.5965C8.68385 62.8231 8.50129 63.0126 8.27958 63.1461C8.02477 63.2995 7.74017 63.3969 7.44475 63.4318L7.28964 62.7937C7.53951 62.7803 7.77915 62.69 7.97579 62.5353C8.14818 62.3639 8.26362 62.1437 8.30642 61.9044L7.62114 61.7616L7.91818 60.3557Z" fill="url(#paint7_linear_2_92)"/>
<path d="M9.2894 68.2759L10.8193 60.9336L16.2594 62.0671L16.0008 63.3085L12.0389 62.483L11.6999 64.11L15.3837 64.8776L15.1261 66.1141L11.4422 65.3465L11.0259 67.3445L15.1278 68.1992L14.8704 69.4347L9.2894 68.2759ZM12.7876 60.9096L13.7904 59.5577L15.3666 59.8862L13.6753 61.0956L12.7876 60.9096Z" fill="url(#paint8_linear_2_92)"/>
<path d="M21.4021 67.9866L22.7432 68.7421C22.4409 69.41 21.9237 69.9574 21.2741 70.2971C20.6227 70.5866 19.8933 70.6503 19.2016 70.4782C18.7501 70.3981 18.3208 70.2227 17.9425 69.9635C17.5643 69.7043 17.2457 69.3673 17.0081 68.9751C16.5054 68.086 16.3715 67.0352 16.6352 66.0485C16.7868 65.0003 17.3381 64.0515 18.1737 63.4007C18.5622 63.13 19.0042 62.9459 19.4699 62.8605C19.9356 62.7752 20.4142 62.7907 20.8734 62.906C21.6859 63.04 22.4125 63.4899 22.8945 64.1576C23.1844 64.6082 23.3463 65.1292 23.3629 65.6648L21.8217 65.7083C21.8277 65.338 21.7009 64.9779 21.4641 64.6931C21.2273 64.4084 20.8963 64.218 20.5311 64.1564C20.282 64.0964 20.0226 64.0933 19.7721 64.1472C19.5216 64.2011 19.2865 64.3107 19.0841 64.4678C18.5823 64.9406 18.2628 65.5748 18.1817 66.2594C17.9721 66.9446 18.0028 67.6808 18.2689 68.3461C18.387 68.5695 18.5546 68.763 18.7589 68.9118C18.9631 69.0605 19.1987 69.1607 19.4476 69.2046C19.8199 69.29 20.2107 69.2317 20.5419 69.0413C20.9306 68.7874 21.2303 68.4185 21.3992 67.986" fill="url(#paint9_linear_2_92)"/>
<path d="M23.9094 67.5376C24.0247 66.8899 24.2722 66.2728 24.6365 65.7248C24.8817 65.3869 25.1846 65.0949 25.5312 64.8622C25.8575 64.6352 26.2269 64.4775 26.6166 64.3989C27.1612 64.3002 27.72 64.3124 28.2598 64.4348C28.7437 64.5138 29.2057 64.6929 29.6164 64.9607C30.0271 65.2285 30.3773 65.5791 30.6447 65.99C31.1084 66.9147 31.2466 67.9687 31.0368 68.9817C30.8271 69.9946 30.2816 70.9071 29.4888 71.5716C29.0815 71.839 28.6228 72.0185 28.1422 72.0985C27.6615 72.1784 27.1694 72.1571 26.6974 72.0359C26.2131 71.9598 25.7499 71.7836 25.3375 71.5184C24.9251 71.2533 24.5725 70.905 24.3022 70.496C24.045 70.0542 23.878 69.5659 23.8107 69.0592C23.7434 68.5525 23.7772 68.0375 23.9101 67.5439M25.4468 67.812C25.2559 68.4809 25.3208 69.1968 25.6289 69.8204C25.7715 70.0614 25.9628 70.2702 26.1904 70.4333C26.4181 70.5964 26.6772 70.7104 26.9513 70.768C27.2254 70.8256 27.5085 70.8256 27.7825 70.7678C28.0566 70.7101 28.3157 70.596 28.5433 70.4328C29.0754 69.9731 29.4195 69.3335 29.5101 68.6362C29.7029 67.9738 29.6459 67.2637 29.3498 66.6405C29.1995 66.4034 29.003 66.199 28.7721 66.0395C28.5411 65.88 28.2804 65.7686 28.0054 65.712C27.7305 65.6553 27.447 65.6547 27.1718 65.71C26.8966 65.7652 26.6353 65.8754 26.4036 66.0338C25.8774 66.4887 25.5371 67.1214 25.4479 67.8112" fill="url(#paint10_linear_2_92)"/>
<path d="M31.5168 72.9135L33.0342 65.6309L34.5164 65.9398L33.2574 71.982L36.9413 72.7496L36.6828 73.9899L31.5168 72.9135Z" fill="url(#paint11_linear_2_92)"/>
<path d="M37.7292 74.2039L39.2591 66.8616L44.6992 67.9951L44.4406 69.2364L40.4806 68.4113L40.1416 70.0384L43.8216 70.8052L43.5625 72.0485L39.8825 71.2817L39.4662 73.2798L43.5652 74.1339L43.3084 75.3664L37.7292 74.2039Z" fill="url(#paint12_linear_2_92)"/>
<path d="M48.9803 68.8871L51.6881 69.4513C52.1611 69.5339 52.6211 69.6785 53.0561 69.8814C53.4532 70.0916 53.7863 70.4048 54.0205 70.7882C54.2668 71.1945 54.4216 71.6496 54.474 72.1218C54.53 72.7193 54.4886 73.322 54.3514 73.9063C54.2526 74.4397 54.0663 74.9531 53.7998 75.4257C53.5434 75.8811 53.1825 76.2691 52.7468 76.5577C52.3931 76.7698 51.9949 76.8966 51.5837 76.9283C51.1323 76.9555 50.6794 76.9155 50.2397 76.8096L47.4506 76.2284L48.9803 68.8871ZM50.203 70.4361L49.1902 75.2967L50.2965 75.5272C50.5947 75.5995 50.8999 75.6388 51.2067 75.6444C51.4389 75.6388 51.6662 75.5764 51.8687 75.4626C52.1003 75.3044 52.2863 75.0881 52.408 74.8354C52.6124 74.4205 52.7571 73.9788 52.8376 73.5234C52.9453 73.0861 52.9866 72.635 52.9602 72.1853C52.9365 71.9005 52.8424 71.6261 52.6863 71.3867C52.5309 71.1704 52.3186 71.0014 52.0731 70.8983C51.6829 70.7544 51.2804 70.6463 50.8707 70.5752L50.203 70.4361Z" fill="url(#paint13_linear_2_92)"/>
<path d="M54.7144 77.743L56.2443 70.4007L61.6844 71.5342L61.4258 72.7756L57.4668 71.9507L57.1278 73.5777L60.8117 74.3453L60.5526 75.5886L56.8687 74.821L56.4524 76.8191L60.5513 77.6732L60.2945 78.9057L54.7144 77.743Z" fill="url(#paint14_linear_2_92)"/>
<path d="M61.6939 76.7048L63.1643 76.8641C63.1267 77.2802 63.235 77.6964 63.4706 78.0414C63.726 78.3458 64.0836 78.5467 64.4765 78.6064C64.8539 78.7142 65.2572 78.6866 65.6164 78.5283C65.7444 78.4689 65.857 78.381 65.9455 78.2712C66.0341 78.1615 66.0963 78.0328 66.1273 77.8952C66.1649 77.7348 66.1439 77.5663 66.068 77.4201C65.9514 77.2396 65.7904 77.0921 65.6005 76.9918C65.4401 76.8957 65.0671 76.7066 64.4817 76.4246C63.8995 76.1873 63.3792 75.82 62.9607 75.3508C62.7844 75.1248 62.66 74.8628 62.5964 74.5833C62.5328 74.3038 62.5316 74.0137 62.5929 73.7337C62.67 73.36 62.8565 73.0177 63.1287 72.7504C63.4215 72.4625 63.7946 72.27 64.1989 72.1981C64.6959 72.1131 65.205 72.1288 65.6959 72.2444C66.4508 72.3443 67.1443 72.7133 67.649 73.2836C67.8379 73.5331 67.971 73.8203 68.0394 74.1256C68.1077 74.431 68.1097 74.7475 68.0452 75.0537L66.5496 74.8095C66.585 74.4906 66.4998 74.1701 66.3109 73.9109C66.0726 73.6687 65.7604 73.5127 65.4237 73.4676C65.0716 73.373 64.6986 73.3922 64.3581 73.5224C64.2734 73.5572 64.1988 73.6127 64.1411 73.6839C64.0835 73.755 64.0446 73.8395 64.0281 73.9296C64.0104 74.0158 64.0127 74.1049 64.0348 74.1901C64.0569 74.2753 64.0982 74.3542 64.1555 74.4209C64.5237 74.7543 64.9505 75.0164 65.4143 75.194C65.9426 75.4212 66.4424 75.7098 66.9032 76.0538C67.2007 76.2938 67.4274 76.6101 67.5594 76.9688C67.6909 77.3661 67.7083 77.7923 67.6095 78.1989C67.5228 78.6187 67.3155 79.004 67.0128 79.3075C66.6995 79.6285 66.2932 79.843 65.8514 79.9205C65.3016 80.007 64.7402 79.9847 64.199 79.8551C63.4217 79.7461 62.7102 79.3594 62.1959 78.7666C61.7711 78.1693 61.5921 77.4317 61.6956 76.7062" fill="url(#paint15_linear_2_92)"/>
<path d="M71.1553 81.1687L72.6852 73.8264L74.9025 74.2884L75.191 79.5713L77.5507 74.8402L79.7739 75.3034L78.244 82.6457L76.8666 82.3587L78.0701 76.5828L75.4099 82.0552L73.9835 81.758L73.7352 75.6795L72.5317 81.4555L71.1553 81.1687Z" fill="url(#paint16_linear_2_92)"/>
<path d="M79.7658 82.9608L81.2956 75.6185L86.7358 76.752L86.4771 77.9934L82.5182 77.1684L82.1791 78.7955L85.865 79.5635L85.6074 80.7999L81.9215 80.0319L81.5052 82.03L85.6041 82.8841L85.3467 84.1196L79.7658 82.9608ZM83.2639 75.5945L84.2668 74.2426L85.8429 74.571L84.1546 75.7811L83.2639 75.5945Z" fill="url(#paint17_linear_2_92)"/>
<path d="M88.1718 84.7144L89.4422 78.6173L87.265 78.1637L87.5244 76.9184L93.3552 78.1333L93.0966 79.3747L90.9252 78.9222L89.654 85.0232L88.1718 84.7144Z" fill="url(#paint18_linear_2_92)"/>
<path d="M95.7578 78.638L94.2756 78.3292L92.7467 85.6666L94.2289 85.9754L95.7578 78.638Z" fill="url(#paint19_linear_2_92)"/>
<path d="M95.6306 86.2685L97.1605 78.9262L102.601 80.0598L102.342 81.3011L98.382 80.476L98.043 82.103L101.727 82.8706L101.468 84.1139L97.784 83.3463L97.3676 85.3444L101.467 86.1985L101.21 87.431L95.6306 86.2685Z" fill="url(#paint20_linear_2_92)"/>
<path d="M102.492 87.6982L104.022 80.3559L107.14 81.0056C107.722 81.0986 108.285 81.2849 108.808 81.5573C109.136 81.7636 109.385 82.0741 109.515 82.4391C109.659 82.8305 109.686 83.2552 109.594 83.662C109.507 84.1664 109.23 84.6183 108.82 84.9247C108.35 85.2339 107.786 85.3671 107.228 85.3008C107.486 85.5269 107.71 85.7897 107.893 86.0808C108.13 86.5182 108.33 86.9754 108.489 87.4471L109.09 89.0728L107.318 88.7036L106.583 86.8836C106.424 86.4586 106.238 86.0444 106.025 85.6435C105.932 85.4815 105.801 85.3445 105.643 85.2443C105.414 85.1281 105.169 85.048 104.915 85.0068L104.615 84.9442L103.976 88.0074L102.492 87.6982ZM104.856 83.7728L105.951 84.001C106.392 84.1169 106.846 84.1802 107.302 84.1896C107.483 84.1701 107.652 84.091 107.782 83.9647C107.921 83.823 108.013 83.6423 108.046 83.4467C108.102 83.2323 108.077 83.0047 107.975 82.8078C107.863 82.6178 107.686 82.4744 107.477 82.4037C107.361 82.3631 107.002 82.2781 106.405 82.1539L105.243 81.9117L104.856 83.7728Z" fill="url(#paint21_linear_2_92)"/>
<path d="M110.012 86.7727L111.483 86.932C111.445 87.3481 111.553 87.7643 111.789 88.1093C112.044 88.4137 112.402 88.6146 112.795 88.6743C113.172 88.7821 113.575 88.7545 113.935 88.5962C114.063 88.5368 114.175 88.4489 114.264 88.3391C114.352 88.2294 114.415 88.1007 114.446 87.9631C114.483 87.8027 114.462 87.6342 114.386 87.488C114.27 87.3075 114.109 87.16 113.919 87.0597C113.758 86.9636 113.385 86.7745 112.8 86.4925C112.218 86.2552 111.697 85.8879 111.279 85.4187C111.103 85.1927 110.978 84.9307 110.915 84.6512C110.851 84.3717 110.85 84.0816 110.911 83.8016C110.986 83.4271 111.171 83.0833 111.442 82.8141C111.735 82.5262 112.108 82.3337 112.512 82.2618C113.009 82.1768 113.518 82.1926 114.009 82.3081C114.764 82.4081 115.457 82.7771 115.962 83.3474C116.151 83.5969 116.284 83.884 116.352 84.1894C116.421 84.4947 116.423 84.8112 116.358 85.1174L114.863 84.8732C114.898 84.5544 114.813 84.2339 114.624 83.9746C114.386 83.7324 114.073 83.5765 113.737 83.5313C113.385 83.4367 113.012 83.4559 112.671 83.5861C112.586 83.6209 112.512 83.6765 112.454 83.7476C112.396 83.8188 112.358 83.9033 112.341 83.9934C112.323 84.0795 112.326 84.1686 112.348 84.2538C112.37 84.339 112.411 84.418 112.469 84.4847C112.837 84.818 113.263 85.0801 113.727 85.2577C114.256 85.4849 114.755 85.7735 115.216 86.1175C115.514 86.3576 115.74 86.6738 115.872 87.0326C116.004 87.4298 116.021 87.856 115.922 88.2627C115.836 88.6824 115.628 89.0678 115.326 89.3713C115.012 89.6923 114.606 89.9067 114.164 89.9842C113.615 90.0707 113.053 90.0485 112.512 89.9188C111.735 89.8098 111.023 89.4232 110.509 88.8303C110.084 88.2331 109.905 87.4955 110.009 86.77" fill="url(#paint22_linear_2_92)"/>
<path d="M121.121 83.9187L123.829 84.4829C124.302 84.5654 124.762 84.71 125.197 84.913C125.594 85.1231 125.927 85.4364 126.161 85.8198C126.407 86.226 126.562 86.6811 126.615 87.1533C126.671 87.7509 126.629 88.3536 126.492 88.9378C126.393 89.4713 126.207 89.9847 125.94 90.4573C125.684 90.9127 125.323 91.3007 124.887 91.5893C124.534 91.8013 124.136 91.9282 123.724 91.9598C123.273 91.987 122.82 91.947 122.38 91.8412L119.593 91.2604L121.121 83.9187ZM122.344 85.4677L121.331 90.3283L122.437 90.5588C122.735 90.631 123.041 90.6703 123.347 90.6759C123.58 90.6703 123.807 90.6079 124.009 90.4941C124.241 90.336 124.427 90.1197 124.549 89.8669C124.753 89.4521 124.898 89.0104 124.978 88.555C125.086 88.1176 125.127 87.6665 125.101 87.2169C125.077 86.9321 124.983 86.6576 124.827 86.4182C124.671 86.202 124.459 86.033 124.214 85.9298C123.823 85.786 123.421 85.6779 123.011 85.6068L122.344 85.4677Z" fill="url(#paint23_linear_2_92)"/>
<path d="M128.487 85.4535L129.969 85.7623L129.141 89.736C129.043 90.143 128.976 90.5569 128.94 90.9741C128.936 91.2746 129.043 91.566 129.242 91.7918C129.488 92.0483 129.812 92.216 130.164 92.2689C130.496 92.3637 130.851 92.3424 131.169 92.2087C131.405 92.0964 131.589 91.8991 131.686 91.6565C131.825 91.2545 131.934 90.8424 132.011 90.4239L132.857 86.3641L134.339 86.6729L133.535 90.5301C133.424 91.1587 133.253 91.7754 133.026 92.3719C132.887 92.6973 132.669 92.9823 132.39 93.2007C132.099 93.4169 131.76 93.5603 131.402 93.6189C130.917 93.6887 130.423 93.6644 129.946 93.5474C129.398 93.4608 128.873 93.2648 128.401 92.9712C128.099 92.7628 127.85 92.4859 127.675 92.163C127.525 91.8858 127.441 91.5779 127.429 91.263C127.443 90.6261 127.524 89.9924 127.671 89.3725L128.487 85.4535Z" fill="url(#paint24_linear_2_92)"/>
<path d="M138.733 87.5884L141.44 88.1526C141.913 88.2351 142.373 88.3797 142.808 88.5827C143.206 88.7928 143.539 89.106 143.773 89.4894C144.019 89.8957 144.174 90.3508 144.226 90.823C144.283 91.4206 144.242 92.0233 144.105 92.6077C144.006 93.1412 143.82 93.6546 143.553 94.1272C143.297 94.5826 142.936 94.9705 142.5 95.2592C142.146 95.4713 141.748 95.5981 141.337 95.6297C140.886 95.6569 140.433 95.6169 139.993 95.511L137.206 94.9303L138.733 87.5884ZM139.955 89.1373L138.943 93.998L140.049 94.2285C140.347 94.3007 140.652 94.34 140.959 94.3456C141.191 94.34 141.419 94.2776 141.621 94.1638C141.853 94.0056 142.039 93.7893 142.16 93.5366C142.365 93.1218 142.509 92.6801 142.59 92.2247C142.698 91.7873 142.739 91.3362 142.713 90.8865C142.689 90.6017 142.595 90.3273 142.439 90.0879C142.283 89.8717 142.071 89.7026 141.825 89.5995C141.435 89.4557 141.033 89.3475 140.623 89.2765L139.955 89.1373Z" fill="url(#paint25_linear_2_92)"/>
<path d="M147.545 89.4288L146.063 89.1199L144.534 96.4573L146.017 96.7662L147.545 89.4288Z" fill="url(#paint26_linear_2_92)"/>
<path d="M151.393 95.0723L151.651 93.8368L154.844 94.5022L154.235 97.4245C153.768 97.693 153.254 97.8672 152.72 97.9371C152.103 98.0436 151.472 98.0334 150.86 97.9071C150.157 97.7784 149.5 97.4679 148.954 97.0065C148.456 96.5751 148.107 95.998 147.955 95.3569C147.793 94.6848 147.786 93.9848 147.933 93.3094C148.067 92.5982 148.378 91.9322 148.838 91.3733C149.276 90.8473 149.867 90.4707 150.529 90.2957C151.132 90.1504 151.76 90.151 152.362 90.2974C153.126 90.4101 153.832 90.7674 154.376 91.3158C154.811 91.8096 155.046 92.448 155.036 93.106L153.51 93.0751C153.489 92.7125 153.345 92.3681 153.101 92.0991C152.833 91.8169 152.48 91.6292 152.097 91.564C151.813 91.4906 151.517 91.4788 151.228 91.5293C150.94 91.5798 150.665 91.6915 150.424 91.8569C149.9 92.2837 149.559 92.8945 149.47 93.5644C149.271 94.255 149.332 94.995 149.643 95.6433C149.788 95.8975 149.987 96.1164 150.226 96.2843C150.466 96.4522 150.74 96.5649 151.028 96.6142C151.348 96.6789 151.678 96.6829 152 96.6258C152.31 96.5784 152.612 96.4857 152.895 96.3505L153.089 95.4195L151.393 95.0723Z" fill="url(#paint27_linear_2_92)"/>
<path d="M158.326 91.675L156.844 91.3662L155.315 98.7036L156.797 99.0125L158.326 91.675Z" fill="url(#paint28_linear_2_92)"/>
<path d="M159.849 99.6495L161.12 93.5524L158.943 93.0988L159.202 91.8535L165.033 93.0684L164.774 94.3098L162.602 93.8571L161.331 99.9581L159.849 99.6495Z" fill="url(#paint29_linear_2_92)"/>
<path d="M170.994 101.972L169.383 101.636L169.088 99.838L166.151 99.226L165.198 100.764L163.631 100.437L168.019 93.6906L169.585 94.017L170.994 101.972ZM168.871 98.5007L168.428 95.5664L166.87 98.0825L168.871 98.5007Z" fill="url(#paint30_linear_2_92)"/>
<path d="M171.818 102.148L173.336 94.8649L174.818 95.1738L173.559 101.216L177.243 101.984L176.985 103.224L171.818 102.148Z" fill="url(#paint31_linear_2_92)"/>
</g>
<defs>
<linearGradient id="paint0_linear_2_92" x1="29.9282" y1="3.45808" x2="19.9633" y2="51.2819" gradientUnits="userSpaceOnUse">
<stop stop-color="#0F52B8"/>
<stop offset="1" stop-color="#2B4570"/>
</linearGradient>
<linearGradient id="paint1_linear_2_92" x1="79.1148" y1="13.7069" x2="69.1499" y2="61.5307" gradientUnits="userSpaceOnUse">
<stop stop-color="#1050B0"/>
<stop offset="0.9999" stop-color="#00299A" stop-opacity="0.0833333"/>
<stop offset="1" stop-color="#294777"/>
</linearGradient>
<linearGradient id="paint2_linear_2_92" x1="171.359" y1="32.9274" x2="161.393" y2="80.7584" gradientUnits="userSpaceOnUse">
<stop stop-color="#0F52B8"/>
<stop offset="1" stop-color="#2B4570"/>
</linearGradient>
<linearGradient id="paint3_linear_2_92" x1="119.249" y1="21.9611" x2="109.261" y2="69.8956" gradientUnits="userSpaceOnUse">
<stop stop-color="#1051B3"/>
<stop offset="1" stop-color="#0D2A5A"/>
</linearGradient>
<linearGradient id="paint4_linear_2_92" x1="58.0768" y1="9.32224" x2="55.6825" y2="20.8134" gradientUnits="userSpaceOnUse">
<stop stop-color="#1050B0"/>
<stop offset="0.9999" stop-color="#00299A" stop-opacity="0.0833333"/>
<stop offset="1" stop-color="#294777"/>
</linearGradient>
<linearGradient id="paint5_linear_2_92" x1="50.5061" y1="45.6559" x2="48.1118" y2="57.1471" gradientUnits="userSpaceOnUse">
<stop stop-color="#1050B0"/>
<stop offset="0.9999" stop-color="#00299A" stop-opacity="0.0833333"/>
<stop offset="1" stop-color="#294777"/>
</linearGradient>
<linearGradient id="paint6_linear_2_92" x1="4.28516" y1="59.6406" x2="2.76772" y2="66.9232" gradientUnits="userSpaceOnUse">
<stop stop-color="#0F52B8"/>
<stop offset="1" stop-color="#2B4570"/>
</linearGradient>
<linearGradient id="paint7_linear_2_92" x1="8.5646" y1="60.4904" x2="7.93062" y2="63.533" gradientUnits="userSpaceOnUse">
<stop stop-color="#0F52B8"/>
<stop offset="1" stop-color="#2B4570"/>
</linearGradient>
<linearGradient id="paint8_linear_2_92" x1="14.0077" y1="59.603" x2="12.0795" y2="68.8573" gradientUnits="userSpaceOnUse">
<stop stop-color="#0F52B8"/>
<stop offset="1" stop-color="#2B4570"/>
</linearGradient>
<linearGradient id="paint9_linear_2_92" x1="20.6317" y1="62.8528" x2="19.049" y2="70.4488" gradientUnits="userSpaceOnUse">
<stop stop-color="#0F52B8"/>
<stop offset="1" stop-color="#2B4570"/>
</linearGradient>
<linearGradient id="paint10_linear_2_92" x1="28.2682" y1="64.4331" x2="26.6837" y2="72.0375" gradientUnits="userSpaceOnUse">
<stop stop-color="#0F52B8"/>
<stop offset="1" stop-color="#2B4570"/>
</linearGradient>
<linearGradient id="paint11_linear_2_92" x1="35.6172" y1="66.1691" x2="34.0998" y2="73.4517" gradientUnits="userSpaceOnUse">
<stop stop-color="#0F52B8"/>
<stop offset="1" stop-color="#2B4570"/>
</linearGradient>
<linearGradient id="paint12_linear_2_92" x1="42.0487" y1="67.4428" x2="40.5188" y2="74.7851" gradientUnits="userSpaceOnUse">
<stop stop-color="#0F52B8"/>
<stop offset="1" stop-color="#2B4570"/>
</linearGradient>
<linearGradient id="paint13_linear_2_92" x1="52.0567" y1="69.5252" x2="50.526" y2="76.8715" gradientUnits="userSpaceOnUse">
<stop stop-color="#0F52B8"/>
<stop offset="1" stop-color="#2B4570"/>
</linearGradient>
<linearGradient id="paint14_linear_2_92" x1="59.0343" y1="70.9821" x2="57.5045" y2="78.3244" gradientUnits="userSpaceOnUse">
<stop stop-color="#0F52B8"/>
<stop offset="1" stop-color="#2B4570"/>
</linearGradient>
<linearGradient id="paint15_linear_2_92" x1="65.7374" y1="72.2442" x2="64.1521" y2="79.8526" gradientUnits="userSpaceOnUse">
<stop stop-color="#0F52B8"/>
<stop offset="1" stop-color="#2B4570"/>
</linearGradient>
<linearGradient id="paint16_linear_2_92" x1="76.2295" y1="74.5649" x2="74.6996" y2="81.9072" gradientUnits="userSpaceOnUse">
<stop stop-color="#0F52B8"/>
<stop offset="1" stop-color="#2B4570"/>
</linearGradient>
<linearGradient id="paint17_linear_2_92" x1="84.4841" y1="74.2879" x2="82.5558" y2="83.5421" gradientUnits="userSpaceOnUse">
<stop stop-color="#0F52B8"/>
<stop offset="1" stop-color="#2B4570"/>
</linearGradient>
<linearGradient id="paint18_linear_2_92" x1="90.4398" y1="77.5259" x2="88.9099" y2="84.8682" gradientUnits="userSpaceOnUse">
<stop stop-color="#0F52B8"/>
<stop offset="1" stop-color="#2B4570"/>
</linearGradient>
<linearGradient id="paint19_linear_2_92" x1="95.0167" y1="78.4836" x2="93.4878" y2="85.821" gradientUnits="userSpaceOnUse">
<stop stop-color="#0F52B8"/>
<stop offset="1" stop-color="#2B4570"/>
</linearGradient>
<linearGradient id="paint20_linear_2_92" x1="99.9501" y1="79.5075" x2="98.4202" y2="86.8498" gradientUnits="userSpaceOnUse">
<stop stop-color="#0F52B8"/>
<stop offset="1" stop-color="#2B4570"/>
</linearGradient>
<linearGradient id="paint21_linear_2_92" x1="107.322" y1="81.0373" x2="105.791" y2="88.3855" gradientUnits="userSpaceOnUse">
<stop stop-color="#0F52B8"/>
<stop offset="1" stop-color="#2B4570"/>
</linearGradient>
<linearGradient id="paint22_linear_2_92" x1="114.051" y1="82.3082" x2="112.466" y2="89.9165" gradientUnits="userSpaceOnUse">
<stop stop-color="#0F52B8"/>
<stop offset="1" stop-color="#2B4570"/>
</linearGradient>
<linearGradient id="paint23_linear_2_92" x1="124.197" y1="84.5567" x2="122.667" y2="91.903" gradientUnits="userSpaceOnUse">
<stop stop-color="#0F52B8"/>
<stop offset="1" stop-color="#2B4570"/>
</linearGradient>
<linearGradient id="paint24_linear_2_92" x1="131.414" y1="86.0634" x2="129.857" y2="93.5339" gradientUnits="userSpaceOnUse">
<stop stop-color="#0F52B8"/>
<stop offset="1" stop-color="#2B4570"/>
</linearGradient>
<linearGradient id="paint25_linear_2_92" x1="141.81" y1="88.2265" x2="140.279" y2="95.5728" gradientUnits="userSpaceOnUse">
<stop stop-color="#0F52B8"/>
<stop offset="1" stop-color="#2B4570"/>
</linearGradient>
<linearGradient id="paint26_linear_2_92" x1="146.804" y1="89.2744" x2="145.276" y2="96.6118" gradientUnits="userSpaceOnUse">
<stop stop-color="#0F52B8"/>
<stop offset="1" stop-color="#2B4570"/>
</linearGradient>
<linearGradient id="paint27_linear_2_92" x1="152.15" y1="90.2471" x2="150.567" y2="97.8473" gradientUnits="userSpaceOnUse">
<stop stop-color="#0F52B8"/>
<stop offset="1" stop-color="#2B4570"/>
</linearGradient>
<linearGradient id="paint28_linear_2_92" x1="157.585" y1="91.5206" x2="156.056" y2="98.858" gradientUnits="userSpaceOnUse">
<stop stop-color="#0F52B8"/>
<stop offset="1" stop-color="#2B4570"/>
</linearGradient>
<linearGradient id="paint29_linear_2_92" x1="162.117" y1="92.461" x2="160.587" y2="99.8033" gradientUnits="userSpaceOnUse">
<stop stop-color="#0F52B8"/>
<stop offset="1" stop-color="#2B4570"/>
</linearGradient>
<linearGradient id="paint30_linear_2_92" x1="168.842" y1="93.8622" x2="167.313" y2="101.205" gradientUnits="userSpaceOnUse">
<stop stop-color="#0F52B8"/>
<stop offset="1" stop-color="#2B4570"/>
</linearGradient>
<linearGradient id="paint31_linear_2_92" x1="175.919" y1="95.4031" x2="174.401" y2="102.686" gradientUnits="userSpaceOnUse">
<stop stop-color="#0F52B8"/>
<stop offset="1" stop-color="#2B4570"/>
</linearGradient>
<clipPath id="clip0_2_92">
<rect width="181.916" height="67.905" fill="white" transform="translate(13.8515) rotate(11.77)"/>
</clipPath>
</defs>
</svg>
