<svg width="152" height="152" viewBox="0 0 152 152" fill="none" xmlns="http://www.w3.org/2000/svg">
<g clip-path="url(#clip0_2_67)">
<path d="M111.889 33.7729L23.2026 59.0374C17.7828 60.5814 14.6118 66.2789 16.1557 71.6987L27.3844 111.115C28.9283 116.535 34.6259 119.706 40.0456 118.162L128.732 92.8972C134.152 91.3533 137.323 85.6557 135.779 80.236L124.55 40.8198C123.006 35.4001 117.309 32.229 111.889 33.7729ZM67.5168 83.7015L57.6628 86.5087L60.4699 96.3627C61.2419 99.0726 59.6564 101.921 56.9465 102.693C54.2366 103.465 51.3879 101.88 50.6159 99.1699L47.8087 89.3158L37.9547 92.123C35.2448 92.895 32.396 91.3094 31.6241 88.5996C30.8521 85.8897 32.4377 83.0409 35.1475 82.269L45.0016 79.4618L42.1944 69.6078C41.4224 66.8979 43.008 64.0491 45.7178 63.2771C48.4277 62.5052 51.2765 64.0907 52.0484 66.8006L54.8556 76.6546L64.7097 73.8475C67.4195 73.0755 70.2683 74.661 71.0403 77.3709C71.8122 80.0808 70.2267 82.9295 67.5168 83.7015ZM97.4226 85.8358C93.3332 87.0008 89.0917 84.6401 87.9267 80.5507C86.7617 76.4613 89.1224 72.2197 93.2119 71.0548C97.3013 69.8898 101.543 72.2505 102.708 76.3399C103.873 80.4294 101.512 84.6709 97.4226 85.8358ZM112.92 65.4404C108.831 66.6054 104.589 64.2447 103.424 60.1553C102.259 56.0658 104.62 51.8243 108.709 50.6594C112.799 49.4944 117.04 51.8551 118.205 55.9445C119.37 60.034 117.009 64.2755 112.92 65.4404Z" fill="url(#paint0_linear_2_67)"/>
</g>
<defs>
<linearGradient id="paint0_linear_2_67" x1="67.5458" y1="46.4052" x2="84.3888" y2="105.529" gradientUnits="userSpaceOnUse">
<stop stop-color="#426DD8"/>
<stop offset="1" stop-color="#203055"/>
</linearGradient>
<clipPath id="clip0_2_67">
<rect width="122.953" height="122.953" fill="white" transform="translate(0 33.686) rotate(-15.9009)"/>
</clipPath>
</defs>
</svg>
