<svg width="131" height="131" viewBox="0 0 131 131" fill="none" xmlns="http://www.w3.org/2000/svg">
<g clip-path="url(#clip0_2_127)">
<path d="M107.371 57.4158C105.867 56.6675 104.174 56.382 102.507 56.5955C100.84 56.8089 99.2737 57.5117 98.006 58.6151C96.7384 59.7184 95.8263 61.1727 95.3849 62.7943C94.9435 64.4158 94.9928 66.1318 95.5263 67.7254C96.0599 69.319 97.0539 70.7187 98.3827 71.7475C99.7115 72.7764 101.315 73.3882 102.992 73.5058C104.668 73.6234 106.342 73.2413 107.801 72.408C109.261 71.5747 110.44 70.3275 111.191 68.8239C111.69 67.8242 111.988 66.7359 112.066 65.6212C112.144 64.5066 112.001 63.3874 111.647 62.3278C111.292 61.2682 110.732 60.289 109.998 59.4461C109.264 58.6033 108.372 57.9133 107.371 57.4158Z" fill="url(#paint0_linear_2_127)"/>
<path d="M98.861 74.5348C96.4942 73.2463 94.7054 71.1066 93.8567 68.5489C93.0081 65.9912 93.163 63.2066 94.2902 60.7588C95.4173 58.311 97.4325 56.383 99.9277 55.3651C102.423 54.3472 105.212 54.3154 107.729 55.2762C108.323 48.3615 107.123 41.4107 104.247 35.0946C100.93 27.4778 94.9383 21.3393 87.4041 17.8383C79.8699 14.3372 71.3146 13.7158 63.3536 16.0915C51.2989 19.3086 41.675 27.9516 35.5267 41.0339C33.8235 44.6847 32.7286 48.5895 32.2856 52.5936L96.0979 82.5337C98.1773 80.378 99.9899 77.9801 101.497 75.3916C100.584 75.2223 99.6984 74.9342 98.861 74.5348ZM92.7254 85.6473L32.1279 57.1683C32.1478 59.004 32.3024 60.8357 32.5906 62.6488L88.2107 88.7886C89.7905 87.8534 91.2994 86.8035 92.7254 85.6473ZM33.8145 67.9225C35.2374 72.6288 37.5831 77.0047 40.7149 80.7951C41.7712 82.0025 42.4564 83.4892 42.6882 85.0766C42.92 86.6641 42.6884 88.2847 42.0214 89.7437L33.8423 107.218C32.899 109.231 32.7927 111.535 33.5467 113.627C34.3008 115.718 35.8535 117.424 37.8643 118.372L41.9169 120.277C43.9337 121.192 46.2279 121.283 48.3113 120.532C50.3946 119.781 52.1025 118.246 53.0714 116.255L61.3032 98.7391C62.0008 97.2945 63.1007 96.082 64.4708 95.2474C65.8408 94.4128 67.4228 93.9915 69.0265 94.0343C73.9432 94.0271 78.8093 93.0404 83.3406 91.1319L33.8145 67.9225Z" fill="url(#paint1_linear_2_127)"/>
</g>
<defs>
<linearGradient id="paint0_linear_2_127" x1="100.703" y1="57.0305" x2="106.47" y2="73.0227" gradientUnits="userSpaceOnUse">
<stop stop-color="#456CD1"/>
<stop offset="1" stop-color="#8800C8" stop-opacity="0"/>
</linearGradient>
<linearGradient id="paint1_linear_2_127" x1="49.6804" y1="20.8694" x2="81.3239" y2="108.629" gradientUnits="userSpaceOnUse">
<stop stop-color="#456CD1"/>
<stop offset="1" stop-color="#8800C8" stop-opacity="0"/>
</linearGradient>
<clipPath id="clip0_2_127">
<rect width="102" height="102" fill="white" transform="translate(0 34.5979) rotate(-19.8278)"/>
</clipPath>
</defs>
</svg>
